<?xml version="1.0"?>
<svg xmlns="http://www.w3.org/2000/svg" xmlns:xlink="http://www.w3.org/1999/xlink" xmlns:svgjs="http://svgjs.com/svgjs" version="1.1" width="512" height="512" x="0" y="0" viewBox="0 0 512 512" style="enable-background:new 0 0 512 512" xml:space="preserve" class=""><g><g xmlns="http://www.w3.org/2000/svg"><g><path d="m473.186 66.84c-5.719-22.892-20.008-42.182-40.244-54.324-12.674-7.581-27.072-11.907-41.636-12.51-.104-.004-.207-.006-.311-.006h-6.832c-.105 0-.21.002-.315.007-29.807 1.255-56.751 17.248-72.077 42.783-18.543 30.925-16.295 70.374 5.418 98.948l3.025 46.646c.159 2.457 1.515 4.679 3.626 5.946 1.183.709 2.519 1.069 3.858 1.069 1.053 0 2.107-.221 3.094-.667l42.591-19.284c35.424 5.731 71.282-10.833 89.833-41.743 12.147-20.226 15.689-43.972 9.97-66.865zm-22.829 59.141c-.001.001-.002.002-.002.003-13.375 22.286-37.578 35.588-62.977 35.586-4.504 0-9.051-.419-13.576-1.28-1.518-.289-3.087-.102-4.496.535l-34.825 15.768-2.473-38.136c-.1-1.541-.673-3.013-1.641-4.215-19.171-23.833-21.475-57.485-5.733-83.736 12.694-21.151 35.001-34.415 59.691-35.506h6.511c12.022.523 23.916 4.114 34.397 10.383 16.79 10.075 28.652 26.089 33.399 45.092 4.749 19.006 1.81 38.718-8.275 55.506z" fill="#57be6c" data-original="#000000" style="" class=""/><path d="m435.799 79.175-61.529-38.999c-4.721-3.003-8.979-3.504-12.649-1.487-2.5 1.373-5.479 4.428-5.479 11.189v77.046c0 6.752 2.982 9.807 5.483 11.181 1.477.811 3.046 1.215 4.701 1.215 2.465 0 5.119-.897 7.935-2.688l61.539-39.005c.039-.025.078-.05.116-.075 4.683-3.09 5.382-7.06 5.382-9.152-.001-3.632-1.998-6.991-5.499-9.225zm-64.658 41.675v-64.898l51.195 32.449z" fill="#57be6c" data-original="#000000" style="" class=""/><path d="m193.831 246.179 60.524 11.034c.447.082.897.122 1.345.122 1.971 0 3.884-.778 5.304-2.197 1.74-1.741 2.517-4.226 2.074-6.648l-11.033-60.526c18.398-42.216 9.055-92.042-23.61-124.708-21.282-21.282-49.57-33.002-79.654-33.002-30.085 0-58.373 11.721-79.655 33.002-2.929 2.929-2.929 7.678 0 10.606 2.93 2.93 7.678 2.929 10.607 0 18.448-18.449 42.97-28.609 69.048-28.609 26.077 0 50.599 10.16 69.047 28.609 28.81 28.81 36.691 73.021 19.612 110.013-.647 1.402-.846 2.969-.568 4.489l9.506 52.147-52.146-9.507c-1.518-.276-3.087-.079-4.488.569-36.991 17.078-81.2 9.197-110.008-19.61-29.219-29.246-36.89-73.923-19.09-111.173 1.786-3.737.204-8.215-3.533-10.001-3.736-1.787-8.215-.204-10 3.533-20.535 42.973-11.689 94.509 22.014 128.245 32.661 32.665 82.488 42.006 124.704 23.612z" fill="#57be6c" data-original="#000000" style="" class=""/><path d="m202.269 194.037c7.418 0 13.452-6.035 13.452-13.453v-69.081c0-7.402-6.034-13.424-13.452-13.424h-105.701c-7.402 0-13.425 6.022-13.425 13.424v69.081c0 7.418 6.022 13.453 13.425 13.453zm-104.126-15v-58.473l46.754 35.493c1.341 1.018 2.938 1.526 4.535 1.526s3.195-.509 4.536-1.527l46.753-35.51v58.491zm14.948-65.958h72.661l-36.322 27.587z" fill="#57be6c" data-original="#000000" style="" class=""/><path d="m430.424 312.634h-10.528v-73.89c.002-9.818.003-18.298-7.105-21.841-6.393-3.186-13.222.939-18.455 4.887-62.13 46.792-109.786 63.376-182.117 63.376h-23.924c-33.457 0-60.677 27.22-60.677 60.678 0 33.442 27.22 60.65 60.677 60.65h2.438l15.16 93.088c.016.099.034.197.054.295 2.081 10.19 7.306 12.123 16.221 12.123h28.459c7.73 0 14.02-6.302 14.02-14.048v-49.675h17.416c12.528 0 22.722-10.206 22.722-22.75v-5.663c29.57 9.947 57.658 26 89.556 50.038 3.928 2.955 8.751 6.007 13.61 6.007 1.622 0 3.25-.341 4.848-1.139 7.102-3.545 7.101-12.017 7.099-21.825v-60.737h10.528c14.076 0 25.527-11.452 25.527-25.528v-28.517c-.002-14.077-11.453-25.529-25.529-25.529zm-250.764 78.031c-21.071-4.047-37.043-22.6-37.043-44.821 0-22.235 15.972-40.8 37.043-44.849zm69.986 106.335h-27.479c-.601 0-1.094-.007-1.5-.018l-14.737-90.488h6.288c13.223 0 25.615.562 37.428 1.753zm40.137-71.474c0 4.273-3.464 7.75-7.722 7.75h-17.416v-23.114c8.621 1.335 16.969 3.055 25.138 5.204zm115.038 33.448c-.438-.303-.925-.653-1.46-1.056-10.459-7.882-20.526-14.935-30.377-21.241v-70.849c0-4.142-3.357-7.5-7.5-7.5s-7.5 3.358-7.5 7.5v61.746c-45.554-26.108-88.205-36.081-145.766-36.081h-17.558v-91.328h17.558c57.554 0 100.204-9.969 145.766-36.07v67.093c0 4.142 3.357 7.5 7.5 7.5s7.5-3.358 7.5-7.5v-76.19c9.852-6.302 19.919-13.352 30.379-21.23.535-.403 1.02-.753 1.458-1.057.076 1.92.076 224.344 0 226.263zm36.13-92.295c0 5.805-4.723 10.528-10.527 10.528h-10.528v-49.573h10.528c5.805 0 10.527 4.723 10.527 10.528z" fill="#57be6c" data-original="#000000" style="" class=""/></g></g></g></svg>
