<svg id="Layer_1" data-name="Layer 1" xmlns="http://www.w3.org/2000/svg" viewBox="0 0 489.01 296.89"><defs><style>.cls-1{fill:#37ff8b;}.cls-2{fill:none;stroke:#37ff8b;stroke-linecap:round;stroke-linejoin:round;stroke-width:25px;}</style></defs><path class="cls-1" d="M784.9,539.5,553,552a12.52,12.52,0,0,1-1.35-25c.45,0,.91,0,1.35,0Z" transform="translate(-295.88 -526.69)"/><path class="cls-1" d="M351.32,552l-55.44-12.5L351.32,527a12.81,12.81,0,1,1,0,25Z" transform="translate(-295.88 -526.69)"/><line class="cls-2" x1="155.52" y1="183.63" x2="60.14" y2="12.82"/><line class="cls-2" x1="331.5" y1="187.66" x2="265.75" y2="74.03"/><path class="cls-1" d="M773.32,726.24,696.86,583.38A12.54,12.54,0,0,1,719,571.55a13.74,13.74,0,0,1,.77,1.77Z" transform="translate(-295.88 -526.69)"/><polyline class="cls-2" points="158.3 183.63 158.64 183.04 243.73 35.98 257.14 12.82"/><line class="cls-2" x1="265.75" y1="74.03" x2="202.33" y2="183.63"/><line class="cls-2" x1="411.46" y1="49.48" x2="331.5" y2="187.66"/><circle class="cls-2" cx="401.8" cy="252.64" r="31.75"/><circle class="cls-2" cx="265.75" cy="252.64" r="31.75"/></svg>